<svg id="priva-logo" xmlns="http://www.w3.org/2000/svg" width="298.2" height="74" viewBox="0 0 298.2 74">
  <path id="Path_1" data-name="Path 1" d="M160.8,60.7c1.5-.4,1.5-.5,0-.6a2.324,2.324,0,0,1-2-1.9c-.8-3.8-2.4,1.8-1.8,6.6.4,4.1.8,4.7,3,5,2.2.2,2.3.1.8-.8-1.2-.7-1.8-2.3-1.8-4.5C159,62.1,159.5,61,160.8,60.7Z" fill="#fff"/>
  <path id="Path_2" data-name="Path 2" d="M231.2,69.8c2.9,0,4.7-.2,4.1-.5-.8-.3-1.3-2.3-1.3-5,0-3.6-.3-4.4-1.7-4.1-1.2.2-1.7,1.4-1.7,4.3-.1,2.9-.5,4-1.6,4-1,0-1.6-1.3-1.8-4.3-.2-2.7-.8-4.2-1.7-4.2-1,0-1.2,1-.9,3.7q.9,6.1,6.6,6.1Z" fill="#fff"/>
  <path id="Path_3" data-name="Path 3" d="M141.9,68.4c2.2,2,6.2,1.8,6.9-.4.5-1.3.3-1.3-1.1-.1-2,1.6-4.7.8-4.7-1.4q0-1.5,3-1.5c3.1,0,3.9-1.7,1.8-3.8-1.7-1.7-4.2-1.5-6.1.6-2.2,2.4-2.1,4.5.2,6.6Zm1.8-6.8c.9-.9,2.6-.2,3.1,1.2.2.7-.6,1.2-1.7,1.2-2.1,0-2.7-1.1-1.4-2.4Z" fill="#fff"/>
  <path id="Path_4" data-name="Path 4" d="M172.1,70c2.3,0,2.5-.3,2.1-3.8-.6-4.7-2-6.5-4.9-5.9-2,.4-2.3,0-2.3-2.9,0-2.1-.5-3.4-1.2-3.4-.9,0-1.3,2.3-1.3,8,0,7.9,0,8,2.5,7.9,1.4,0,1.9-.3,1.3-.6-1.8-.7-1.7-7,.1-7.6,3-1.2,5,4.5,2.4,7.1-.9.9-.6,1.2,1.3,1.2Z" fill="#fff"/>
  <path id="Path_5" data-name="Path 5" d="M137,62.6c0,1.3.3,1.5,1.1.7a2.091,2.091,0,0,0,.5-2.2c-2.3-3.7-9.5,1.5-8.1,5.8.9,3,5.2,3.8,7.3,1.5q1.6-1.7,0-.5c-2.8,2.1-5,.6-4.6-3.1.3-3.6,3.8-5.5,3.8-2.2Z" fill="#fff"/>
  <path id="Path_6" data-name="Path 6" d="M148,36V0h-5V36h5Z" fill="#fff"/>
  <path id="Path_7" data-name="Path 7" d="M181.8,65c3.6,0,4.4-.8,3.1-3.1-1.1-2.1-4.9-2.5-6.7-.7a6.617,6.617,0,0,0,0,7.6,5.007,5.007,0,0,0,6.9-.5c1.3-1.5,1.2-1.5-.8-.3-1.8,1.1-2.4,1.2-3.7.1C178.2,66.1,178.7,65,181.8,65Zm-2.1-3.3c1.2-1.3,3.3-.7,3.3.8,0,.8-.9,1.5-2,1.5C179,64,178.4,62.9,179.7,61.7Z" fill="#fff"/>
  <path id="Path_8" data-name="Path 8" d="M242,62.2a2.072,2.072,0,0,0,2.2-.7c.2-.6-1.3-1.1-3.2-1.2l-3.5-.2v5c0,4.6.2,4.9,2.5,4.8,1.4,0,1.9-.3,1.3-.6-.7-.2-1.3-2-1.3-3.9C240,62.5,240.3,61.9,242,62.2Z" fill="#fff"/>
  <path id="Path_9" data-name="Path 9" d="M220.8,60.7c1.5-.4,1.5-.5,0-.6a2.324,2.324,0,0,1-2-1.9c-.8-3.8-2.4,1.8-1.8,6.6.4,4.1.8,4.7,3,5,2.2.2,2.3.1.8-.8-1.2-.7-1.8-2.3-1.8-4.5C219,62.1,219.5,61,220.8,60.7Z" fill="#fff"/>
  <path id="Path_10" data-name="Path 10" d="M259.3,28H286l2.6,4c2.3,3.4,3.2,4,6.1,4h3.5l-1.9-2.9c-1-1.6-6.3-9.7-11.8-18C278.1,5.4,273.9,0,272.8,0,271.6,0,267,6.1,259,18L247,36h3.5c2.9,0,3.9-.6,6.1-4l2.7-4Zm9.2-13.8c2.2-3.4,4-6.2,4.1-6.2s2.2,3.1,4.8,7l4.6,7h-9.1c-5,0-8.9-.4-8.7-.8.2-.5,2.1-3.6,4.3-7Z" fill="#fff"/>
  <path id="Path_11" data-name="Path 11" d="M126.1,70c2.3,0,2.5-.3,2.1-3.8a13.141,13.141,0,0,0-1.4-4.9c-.5-.6-2.6-1.1-4.6-1.1h-3.7v4.9c0,4.6.2,4.9,2.5,4.8,1.4,0,1.9-.3,1.3-.6-1.8-.7-1.7-7,.1-7.6,3-1.2,5,4.5,2.4,7.1-.9.9-.6,1.2,1.3,1.2Z" fill="#fff"/>
  <path id="Path_12" data-name="Path 12" d="M225.2,0h-3.5c-3.3,0-3.7.5-12.3,13.5-4.9,7.4-9.2,13.5-9.6,13.5S195,20.9,190,13.5C181.3.5,180.8,0,177.5,0H174l12,18c8,11.9,12.6,18,13.8,18,1.4,0,10.1-12.2,23.5-33.1L225.2,0Z" fill="#fff"/>
  <path id="Path_13" data-name="Path 13" d="M250.8,65c3.6,0,4.4-.8,3.1-3.1-1.1-2.1-4.9-2.5-6.7-.7a6.617,6.617,0,0,0,0,7.6,5.007,5.007,0,0,0,6.9-.5c1.3-1.5,1.2-1.5-.8-.3-1.8,1.1-2.4,1.2-3.7.1C247.2,66.1,247.7,65,250.8,65Zm-2.1-3.3c1.2-1.3,3.3-.7,3.3.8,0,.8-.9,1.5-2,1.5C248,64,247.4,62.9,248.7,61.7Z" fill="#fff"/>
  <path id="Path_14" data-name="Path 14" d="M208.5,68.5c-1.6,0-2.1-.8-2.3-4.3-.2-2.9-.8-4.2-1.8-4.2s-1.3.7-.9,2.5c.3,1.4.7,3.6,1,4.9.5,2.3,1,2.5,5.8,2.4,2.8,0,4.6-.3,4-.5-.8-.3-1.3-2.3-1.3-4.9,0-3-.4-4.4-1.3-4.4-1,0-1.3,1.3-1.3,4.2.1,3.7-.2,4.3-1.9,4.3Z" fill="#fff"/>
  <path id="Path_15" data-name="Path 15" d="M199.6,58.5c.9,2.2,2.4,1.8,2.4-.5,0-1.7-.7-2-5.2-2-4,0-4.9.3-4,1.2,1.6,1.6,1.6,10,0,11.6-.9.9-.4,1.2,2.2,1.1,1.9,0,2.9-.3,2.3-.6-2.3-.9-1.5-5.1,1-5.6l2.2-.4-2.2-.2c-1.9-.1-2.3-.7-2.3-3.1,0-3.2,2.6-4.3,3.6-1.5Z" fill="#fff"/>
  <path id="Path_16" data-name="Path 16" d="M64.7,70h2.6l-2.1-2.3c-2.6-2.8-2.7-3.5-.5-5.9,1.5-1.7,1.5-1.8-.5-1.8-1.5,0-2,.5-1.6,1.5.4.8.2,1.5-.4,1.5A4.289,4.289,0,0,1,60,61.5,4.423,4.423,0,0,0,57.4,60c-1,0-.8.6.6,2,1.1,1.1,2,2.4,2,3a7.165,7.165,0,0,1-2,3l-2,2h2c1.1,0,1.9-.6,1.8-1.3-.2-.6.4-1.2,1.2-1.2s1.4.6,1.3,1.2C62.1,69.5,63.1,70,64.7,70Z" fill="#fff"/>
  <path id="Path_17" data-name="Path 17" d="M100.9,69.1c-1,.6-.7.9,1.1.9,2.4,0,2.5-.2,2.2-5-.3-3.3-.8-5-1.7-5-1,0-1.2,1.1-.8,4.1.4,2.9.2,4.4-.8,5Z" fill="#fff"/>
  <path id="Path_18" data-name="Path 18" d="M74.9,69.7a5.151,5.151,0,0,0,3.4-7.6c-.6-1-2.6-1.7-5.2-1.8a25.316,25.316,0,0,0-4.2,0c0,.1-.1,3.2-.2,7-.2,6.3-.1,6.7,2,6.7,1.6,0,2-.5,1.6-1.9-.3-1.4.2-2,2.6-2.4Zm-2.9-4c0-1.9.3-3.7.7-4,1.1-1.2,2.2-.8,3.3,1.3,1.5,2.8.3,6-2.1,6C72.4,69,72,68.3,72,65.7Z" fill="#fff"/>
  <path id="Path_19" data-name="Path 19" d="M85.8,65c3.6,0,4.4-.8,3.1-3.1-1.1-2.1-4.9-2.5-6.7-.7a6.617,6.617,0,0,0,0,7.6,5.007,5.007,0,0,0,6.9-.5c1.3-1.5,1.2-1.5-.8-.3-1.8,1.1-2.4,1.2-3.7.1C82.2,66.1,82.7,65,85.8,65Zm-2.1-3.3c1.2-1.3,3.3-.7,3.3.8,0,.8-.9,1.5-2,1.5C83,64,82.4,62.9,83.7,61.7Z" fill="#fff"/>
  <path id="Path_20" data-name="Path 20" d="M44.8,69.3c-.7.3,1.3.6,4.5.6,5.2.1,5.7-.1,5.7-2.1s-.1-2.1-1.3-.4c-1.7,2.4-5.1,1.7-5.5-1.1-.2-1.6.3-2.3,2-2.6l2.3-.4-2.2-.2C48.4,63,48,62.4,48,60s.4-3,2-3a3.852,3.852,0,0,1,2.9,1.7c.9,1.6,1,1.6,1.1-.5,0-2-.4-2.2-5.2-2.1-2.9,0-4.7.3-4,.6S46,59.3,46,63,45.5,69,44.8,69.3Z" fill="#fff"/>
  <path id="Path_21" data-name="Path 21" d="M18.5,0H0V36H6V23H21.5c15.2,0,15.6-.1,18-2.5,2.2-2.1,2.5-3.3,2.5-9s-.3-6.9-2.5-9C37.1,0,36.9,0,18.5,0Zm17,11.5v5l-14.7.3L6,17.1V5.9l14.8.3,14.7.3Z" fill="#fff"/>
  <path id="Path_22" data-name="Path 22" d="M115.1,68.3c1.3-1.5,1.2-1.5-.8-.3-1.8,1.1-2.4,1.2-3.7.1-2.4-2-1.9-3.1,1.3-3.1,3.5,0,4.8-1.5,3.1-3.5-1.5-1.8-5.2-1.9-6.8-.3a6.617,6.617,0,0,0,0,7.6A5.007,5.007,0,0,0,115.1,68.3Zm-5.5-5.8a2.528,2.528,0,0,1,2-1.5,1.453,1.453,0,0,1,1.4,1.5c0,.8-.9,1.5-2,1.5-1.3,0-1.8-.5-1.4-1.5Z" fill="#fff"/>
  <path id="Path_23" data-name="Path 23" d="M108,30.7c0,5.2,0,5.3,3,5.3s3-.1,3-4.9a27.551,27.551,0,0,0-1.1-7.8c-.7-2-.7-3.9.2-7,1.5-5.4.4-10.8-2.6-13.9C108.1,0,107.8,0,89.5,0H71V36h6V23H91.3c9.8,0,14.7.4,15.5,1.2C107.5,24.9,108,27.8,108,30.7ZM77,17V6H91.9c16,0,16.1,0,16.1,5.5S107.9,17,91.9,17Z" fill="#fff"/>
  <path id="Path_24" data-name="Path 24" d="M96.9,62.5c1.5.4,2.1.2,2.1-.8s-1.1-1.5-3.4-1.5q-3.4,0-2.8,4c.3,2.8.1,4.3-.9,4.9s-.7.9,1.1.9c2.4,0,2.5-.3,2.2-4.1-.4-3.8-.3-4.1,1.7-3.4Z" fill="#fff"/>
  <path id="Path_25" data-name="Path 25" d="M104,55.8a.882.882,0,0,0-.9-.8c-1.4,0-2.3,1.8-1.3,2.4s2.2-.3,2.2-1.6Z" fill="#fff"/>
</svg>
